<?xml version="1.0" standalone="no"?><!DOCTYPE svg PUBLIC "-//W3C//DTD SVG 1.1//EN" "http://www.w3.org/Graphics/SVG/1.1/DTD/svg11.dtd"><svg t="1769497958503" class="icon" viewBox="0 0 1024 1024" version="1.1" xmlns="http://www.w3.org/2000/svg" p-id="11785" xmlns:xlink="http://www.w3.org/1999/xlink" width="200" height="200"><path d="M480 0A416 416 0 0 0 64 416c0 224 377.6 576 396.8 588.8L480 1024l19.2-19.2C518.4 992 896 640 896 416A416 416 0 0 0 480 0z m0 569.6a172.8 172.8 0 0 1-122.24-50.56l-1.92-1.92A172.8 172.8 0 1 1 652.8 396.8a170.176 170.176 0 0 1-49.28 120.96 11.2 11.2 0 0 0-2.56 3.2 171.584 171.584 0 0 1-119.68 48.64z" p-id="11786" fill="#ffffff"></path></svg>