<?xml version="1.0" standalone="no"?><!DOCTYPE svg PUBLIC "-//W3C//DTD SVG 1.1//EN" "http://www.w3.org/Graphics/SVG/1.1/DTD/svg11.dtd"><svg t="1769765069965" class="icon" viewBox="0 0 1024 1024" version="1.1" xmlns="http://www.w3.org/2000/svg" p-id="10852" xmlns:xlink="http://www.w3.org/1999/xlink" width="200" height="200"><path d="M0 0h1024v1024H0V0z" fill="#ffffff" opacity=".01" p-id="10853"></path><path d="M102.4 512C102.4 285.7984 285.7984 102.4 512 102.4s409.6 183.3984 409.6 409.6-183.3984 409.6-409.6 409.6S102.4 738.2016 102.4 512zM512 34.133333C248.081067 34.133333 34.133333 248.081067 34.133333 512s213.947733 477.866667 477.866667 477.866667 477.866667-213.947733 477.866667-477.866667S775.918933 34.133333 512 34.133333z m-146.5344 283.067734a34.133333 34.133333 0 0 0-48.264533 48.264533L463.735467 512l-146.5344 146.5344a34.133333 34.133333 0 1 0 48.264533 48.264533L512 560.264533l146.5344 146.5344a34.133333 34.133333 0 0 0 48.264533-48.264533L560.264533 512l146.5344-146.5344a34.133333 34.133333 0 0 0-48.264533-48.264533L512 463.735467l-146.5344-146.5344z" fill="#ffffff" p-id="10854"></path></svg>