<?xml version="1.0" standalone="no"?><!DOCTYPE svg PUBLIC "-//W3C//DTD SVG 1.1//EN" "http://www.w3.org/Graphics/SVG/1.1/DTD/svg11.dtd"><svg t="1769502861661" class="icon" viewBox="0 0 1024 1024" version="1.1" xmlns="http://www.w3.org/2000/svg" p-id="12833" xmlns:xlink="http://www.w3.org/1999/xlink" width="200" height="200"><path d="M113.12 993.12c-24 0-40-8-56-24-32-32-32-80 0-112l800-800c32-32 80-32 112 0s32 80 0 112l-800 800c-16 16-32 24-56 24z" fill="#ffffff" p-id="12834"></path><path d="M913.12 993.12c-24 0-40-8-56-24l-800-800c-32-32-32-80 0-112s80-32 112 0l800 800c32 32 32 80 0 112-16 16-32 24-56 24z" fill="#ffffff" p-id="12835"></path></svg>